<?xml version="1.0" encoding="utf-8"?>
<!-- Generator: Adobe Illustrator 15.1.0, SVG Export Plug-In . SVG Version: 6.00 Build 0)  -->
<!DOCTYPE svg PUBLIC "-//W3C//DTD SVG 1.1//EN" "http://www.w3.org/Graphics/SVG/1.1/DTD/svg11.dtd">
<svg version="1.1" id="Camada_1" xmlns="http://www.w3.org/2000/svg" xmlns:xlink="http://www.w3.org/1999/xlink" x="0px" y="0px"
	 width="390px" height="450px" viewBox="0 0 390 450" enable-background="new 0 0 390 450" xml:space="preserve">
<image overflow="visible" width="281" height="500" xlink:href="Fundo-preto.jpg"  transform="matrix(1.3879 0 0 0.9 0 0)">
</image>
<ellipse fill="#9EB0FF" cx="155.09" cy="238.664" rx="24.5" ry="23.5"/>
<path fill="#FF249C" d="M226.09,248.07c0,7.025-5.498,12.719-12.281,12.719h-18.936c-6.783,0-12.282-5.693-12.282-12.719v-18.813
	c0-7.023,5.499-12.719,12.282-12.719h18.936c6.783,0,12.281,5.695,12.281,12.719V248.07z"/>
<path fill="#FF249C" d="M276.09,248.07c0,7.025-5.498,12.719-12.281,12.719h-18.936c-6.783,0-12.283-5.693-12.283-12.719v-18.813
	c0-7.023,5.5-12.719,12.283-12.719h18.936c6.783,0,12.281,5.695,12.281,12.719V248.07z"/>
<path fill="#FF249C" d="M176.84,298.07c0,7.025-5.499,12.719-12.282,12.719h-18.936c-6.783,0-12.282-5.693-12.282-12.719v-18.813
	c0-7.023,5.499-12.719,12.282-12.719h18.936c6.783,0,12.282,5.695,12.282,12.719V298.07z"/>
<path fill="#FF249C" d="M226.09,297.07c0,7.025-5.498,12.719-12.281,12.719h-18.936c-6.783,0-12.282-5.693-12.282-12.719v-18.813
	c0-7.023,5.499-12.719,12.282-12.719h18.936c6.783,0,12.281,5.695,12.281,12.719V297.07z"/>
<path fill="#FF249C" d="M176.84,346.57c0,7.025-5.499,12.719-12.282,12.719h-18.936c-6.783,0-12.282-5.693-12.282-12.719v-18.813
	c0-7.023,5.499-12.719,12.282-12.719h18.936c6.783,0,12.282,5.695,12.282,12.719V346.57z"/>
<path fill="#FF249C" d="M226.09,346.57c0,7.025-5.498,12.719-12.281,12.719h-18.936c-6.783,0-12.282-5.693-12.282-12.719v-18.813
	c0-7.023,5.499-12.719,12.282-12.719h18.936c6.783,0,12.281,5.695,12.281,12.719V346.57z"/>
<path fill="#FF249C" d="M276.09,346.57c0,7.025-5.498,12.719-12.281,12.719h-18.936c-6.783,0-12.283-5.693-12.283-12.719v-18.813
	c0-7.023,5.5-12.719,12.283-12.719h18.936c6.783,0,12.281,5.695,12.281,12.719V346.57z"/>
<path fill="#FF249C" d="M226.09,396.82c0,7.025-5.498,12.719-12.281,12.719h-18.936c-6.783,0-12.282-5.693-12.282-12.719v-18.813
	c0-7.023,5.499-12.719,12.282-12.719h18.936c6.783,0,12.281,5.695,12.281,12.719V396.82z"/>
<path fill="#FF249C" d="M176.84,396.82c0,7.025-5.499,12.719-12.282,12.719h-18.936c-6.783,0-12.282-5.693-12.282-12.719v-18.813
	c0-7.023,5.499-12.719,12.282-12.719h18.936c6.783,0,12.282,5.695,12.282,12.719V396.82z"/>
<image overflow="visible" width="342" height="89" xlink:href="25D5C01.jpg"  transform="matrix(1 0 0 1 24 16)">
</image>
<image overflow="visible" width="73" height="61" xlink:href="25D5C07.jpg"  transform="matrix(1 0 0 1 158.5 132)">
</image>
</svg>
